<?xml version="1.0" encoding="UTF-8"?>
<svg width="983.55" height="983.55" viewBox="0 0 983.55011 772.86444" xmlns="http://www.w3.org/2000/svg" xmlns:xlink="http://www.w3.org/1999/xlink">
 <defs>
  <linearGradient id="b" x1="273.75" x2="578.82" y1="436.17" y2="691.74" gradientUnits="userSpaceOnUse">
   <stop stop-color="#ff2929" offset="0"/>
   <stop stop-color="#f00000" offset=".5"/>
   <stop stop-color="#820000" offset="1"/>
  </linearGradient>
  <linearGradient id="d">
   <stop stop-color="#fff" stop-opacity=".77124" offset="0"/>
   <stop stop-color="#fff" stop-opacity=".15686" offset="1"/>
  </linearGradient>
  <linearGradient id="a" x1="250" x2="260" y1="355.22" y2="402.54" gradientUnits="userSpaceOnUse" xlink:href="#d"/>
  <linearGradient id="c" x1="542.86" x2="552.86" y1="348.79" y2="396.11" gradientUnits="userSpaceOnUse" xlink:href="#d"/>
 </defs>
 <g transform="matrix(.93961 0 0 .93961 334.35 -296.17)" fill-rule="evenodd">
  <path d="m270.43 330.39c-81.404-2.7139-148.86 73.917-128.56 171.44 38.576 185.36 176.84 192.41 271.12 365.78v5.6562c0.12403-0.23553 0.25077-0.45256 0.375-0.6875 0.12422 0.23493 0.25096 0.45198 0.375 0.6875v-1.3438c0.27209-0.51257 0.53964-0.99028 0.8125-1.5 0.27529 0.51422 0.56924 0.98287 0.84375 1.5v1.3438c0.12404-0.23552 0.25078-0.45257 0.375-0.6875 0.12423 0.23494 0.25097 0.45197 0.375 0.6875v-5.6562c94.284-173.37 232.55-180.42 271.12-365.78 20.295-97.52-47.158-174.15-128.56-171.44-75.133 2.5048-126.44 40.77-144.12 108.5-17.688-67.733-69.021-106-144.16-108.5z" fill-opacity=".56542"/>
  <path d="m254.27 320.29c-81.404-2.7139-148.86 73.917-128.56 171.44 38.576 185.36 176.84 192.41 271.12 365.78v5.6562c0.12403-0.23553 0.25077-0.45256 0.375-0.6875 0.12422 0.23493 0.25096 0.45198 0.375 0.6875v-1.3438c0.27209-0.51257 0.53964-0.99028 0.8125-1.5 0.27529 0.51422 0.56924 0.98287 0.84375 1.5v1.3438c0.12404-0.23552 0.25078-0.45257 0.375-0.6875 0.12423 0.23494 0.25097 0.45197 0.375 0.6875v-5.6562c94.284-173.37 232.55-180.42 271.12-365.78 20.295-97.52-47.158-174.15-128.56-171.44-75.133 2.5048-126.44 40.77-144.12 108.5-17.688-67.733-69.021-106-144.16-108.5z" fill="url(#b)" stroke="#8d0000" stroke-linecap="round" stroke-linejoin="round" stroke-width="10"/>
  <path d="m155.71 463.79c-3.5728 4.5796-5-64.286 58.571-110 32.522-23.386 100.36-12.143 85.714 14.286s-68.681-1.1967-144.29 95.714z" fill="url(#a)"/>
  <path d="m432.14 435.93c-3.5728 4.5796-6.4286-41.429 57.143-87.143 32.522-23.386 133.21-4.2857 110 10.714-25.377 16.398-91.538-20.482-167.14 76.429z" fill="url(#c)"/>
 </g>
 <g transform="matrix(.19898 -.07998 .07998 .19898 219.12 226.81)" fill-rule="evenodd">
  <path d="m270.43 330.39c-81.404-2.7139-148.86 73.917-128.56 171.44 38.576 185.36 176.84 192.41 271.12 365.78v5.6562c0.12403-0.23553 0.25077-0.45256 0.375-0.6875 0.12422 0.23493 0.25096 0.45198 0.375 0.6875v-1.3438c0.27209-0.51257 0.53964-0.99028 0.8125-1.5 0.27529 0.51422 0.56924 0.98287 0.84375 1.5v1.3438c0.12404-0.23552 0.25078-0.45257 0.375-0.6875 0.12423 0.23494 0.25097 0.45197 0.375 0.6875v-5.6562c94.284-173.37 232.55-180.42 271.12-365.78 20.295-97.52-47.158-174.15-128.56-171.44-75.133 2.5048-126.44 40.77-144.12 108.5-17.688-67.733-69.021-106-144.16-108.5z" fill-opacity=".56542"/>
  <path d="m254.27 320.29c-81.404-2.7139-148.86 73.917-128.56 171.44 38.576 185.36 176.84 192.41 271.12 365.78v5.6562c0.12403-0.23553 0.25077-0.45256 0.375-0.6875 0.12422 0.23493 0.25096 0.45198 0.375 0.6875v-1.3438c0.27209-0.51257 0.53964-0.99028 0.8125-1.5 0.27529 0.51422 0.56924 0.98287 0.84375 1.5v1.3438c0.12404-0.23552 0.25078-0.45257 0.375-0.6875 0.12423 0.23494 0.25097 0.45197 0.375 0.6875v-5.6562c94.284-173.37 232.55-180.42 271.12-365.78 20.295-97.52-47.158-174.15-128.56-171.44-75.133 2.5048-126.44 40.77-144.12 108.5-17.688-67.733-69.021-106-144.16-108.5z" fill="url(#b)" stroke="#8d0000" stroke-linecap="round" stroke-linejoin="round" stroke-width="10"/>
  <path d="m155.71 463.79c-3.5728 4.5796-5-64.286 58.571-110 32.522-23.386 100.36-12.143 85.714 14.286s-68.681-1.1967-144.29 95.714z" fill="url(#a)"/>
  <path d="m432.14 435.93c-3.5728 4.5796-6.4286-41.429 57.143-87.143 32.522-23.386 133.21-4.2857 110 10.714-25.377 16.398-91.538-20.482-167.14 76.429z" fill="url(#c)"/>
 </g>
 <g transform="matrix(.10269 .05795 -.05795 .10269 411.47 336.26)" fill-rule="evenodd">
  <path d="m270.43 330.39c-81.404-2.7139-148.86 73.917-128.56 171.44 38.576 185.36 176.84 192.41 271.12 365.78v5.6562c0.12403-0.23553 0.25077-0.45256 0.375-0.6875 0.12422 0.23493 0.25096 0.45198 0.375 0.6875v-1.3438c0.27209-0.51257 0.53964-0.99028 0.8125-1.5 0.27529 0.51422 0.56924 0.98287 0.84375 1.5v1.3438c0.12404-0.23552 0.25078-0.45257 0.375-0.6875 0.12423 0.23494 0.25097 0.45197 0.375 0.6875v-5.6562c94.284-173.37 232.55-180.42 271.12-365.78 20.295-97.52-47.158-174.15-128.56-171.44-75.133 2.5048-126.44 40.77-144.12 108.5-17.688-67.733-69.021-106-144.16-108.5z" fill-opacity=".56542"/>
  <path d="m254.27 320.29c-81.404-2.7139-148.86 73.917-128.56 171.44 38.576 185.36 176.84 192.41 271.12 365.78v5.6562c0.12403-0.23553 0.25077-0.45256 0.375-0.6875 0.12422 0.23493 0.25096 0.45198 0.375 0.6875v-1.3438c0.27209-0.51257 0.53964-0.99028 0.8125-1.5 0.27529 0.51422 0.56924 0.98287 0.84375 1.5v1.3438c0.12404-0.23552 0.25078-0.45257 0.375-0.6875 0.12423 0.23494 0.25097 0.45197 0.375 0.6875v-5.6562c94.284-173.37 232.55-180.42 271.12-365.78 20.295-97.52-47.158-174.15-128.56-171.44-75.133 2.5048-126.44 40.77-144.12 108.5-17.688-67.733-69.021-106-144.16-108.5z" fill="url(#b)" stroke="#8d0000" stroke-linecap="round" stroke-linejoin="round" stroke-width="10"/>
  <path d="m155.71 463.79c-3.5728 4.5796-5-64.286 58.571-110 32.522-23.386 100.36-12.143 85.714 14.286s-68.681-1.1967-144.29 95.714z" fill="url(#a)"/>
  <path d="m432.14 435.93c-3.5728 4.5796-6.4286-41.429 57.143-87.143 32.522-23.386 133.21-4.2857 110 10.714-25.377 16.398-91.538-20.482-167.14 76.429z" fill="url(#c)"/>
 </g>
 <g transform="matrix(.11276 -.03449 .03449 .11276 211.93 339.93)" fill-rule="evenodd">
  <path d="m270.43 330.39c-81.404-2.7139-148.86 73.917-128.56 171.44 38.576 185.36 176.84 192.41 271.12 365.78v5.6562c0.12403-0.23553 0.25077-0.45256 0.375-0.6875 0.12422 0.23493 0.25096 0.45198 0.375 0.6875v-1.3438c0.27209-0.51257 0.53964-0.99028 0.8125-1.5 0.27529 0.51422 0.56924 0.98287 0.84375 1.5v1.3438c0.12404-0.23552 0.25078-0.45257 0.375-0.6875 0.12423 0.23494 0.25097 0.45197 0.375 0.6875v-5.6562c94.284-173.37 232.55-180.42 271.12-365.78 20.295-97.52-47.158-174.15-128.56-171.44-75.133 2.5048-126.44 40.77-144.12 108.5-17.688-67.733-69.021-106-144.16-108.5z" fill-opacity=".56542"/>
  <path d="m254.27 320.29c-81.404-2.7139-148.86 73.917-128.56 171.44 38.576 185.36 176.84 192.41 271.12 365.78v5.6562c0.12403-0.23553 0.25077-0.45256 0.375-0.6875 0.12422 0.23493 0.25096 0.45198 0.375 0.6875v-1.3438c0.27209-0.51257 0.53964-0.99028 0.8125-1.5 0.27529 0.51422 0.56924 0.98287 0.84375 1.5v1.3438c0.12404-0.23552 0.25078-0.45257 0.375-0.6875 0.12423 0.23494 0.25097 0.45197 0.375 0.6875v-5.6562c94.284-173.37 232.55-180.42 271.12-365.78 20.295-97.52-47.158-174.15-128.56-171.44-75.133 2.5048-126.44 40.77-144.12 108.5-17.688-67.733-69.021-106-144.16-108.5z" fill="url(#b)" stroke="#8d0000" stroke-linecap="round" stroke-linejoin="round" stroke-width="10"/>
  <path d="m155.71 463.79c-3.5728 4.5796-5-64.286 58.571-110 32.522-23.386 100.36-12.143 85.714 14.286s-68.681-1.1967-144.29 95.714z" fill="url(#a)"/>
  <path d="m432.14 435.93c-3.5728 4.5796-6.4286-41.429 57.143-87.143 32.522-23.386 133.21-4.2857 110 10.714-25.377 16.398-91.538-20.482-167.14 76.429z" fill="url(#c)"/>
 </g>
 <g transform="matrix(.20451 .06454 -.06454 .20451 281.9 392.15)" fill-rule="evenodd">
  <path d="m270.43 330.39c-81.404-2.7139-148.86 73.917-128.56 171.44 38.576 185.36 176.84 192.41 271.12 365.78v5.6562c0.12403-0.23553 0.25077-0.45256 0.375-0.6875 0.12422 0.23493 0.25096 0.45198 0.375 0.6875v-1.3438c0.27209-0.51257 0.53964-0.99028 0.8125-1.5 0.27529 0.51422 0.56924 0.98287 0.84375 1.5v1.3438c0.12404-0.23552 0.25078-0.45257 0.375-0.6875 0.12423 0.23494 0.25097 0.45197 0.375 0.6875v-5.6562c94.284-173.37 232.55-180.42 271.12-365.78 20.295-97.52-47.158-174.15-128.56-171.44-75.133 2.5048-126.44 40.77-144.12 108.5-17.688-67.733-69.021-106-144.16-108.5z" fill-opacity=".56542"/>
  <path d="m254.27 320.29c-81.404-2.7139-148.86 73.917-128.56 171.44 38.576 185.36 176.84 192.41 271.12 365.78v5.6562c0.12403-0.23553 0.25077-0.45256 0.375-0.6875 0.12422 0.23493 0.25096 0.45198 0.375 0.6875v-1.3438c0.27209-0.51257 0.53964-0.99028 0.8125-1.5 0.27529 0.51422 0.56924 0.98287 0.84375 1.5v1.3438c0.12404-0.23552 0.25078-0.45257 0.375-0.6875 0.12423 0.23494 0.25097 0.45197 0.375 0.6875v-5.6562c94.284-173.37 232.55-180.42 271.12-365.78 20.295-97.52-47.158-174.15-128.56-171.44-75.133 2.5048-126.44 40.77-144.12 108.5-17.688-67.733-69.021-106-144.16-108.5z" fill="url(#b)" stroke="#8d0000" stroke-linecap="round" stroke-linejoin="round" stroke-width="10"/>
  <path d="m155.71 463.79c-3.5728 4.5796-5-64.286 58.571-110 32.522-23.386 100.36-12.143 85.714 14.286s-68.681-1.1967-144.29 95.714z" fill="url(#a)"/>
  <path d="m432.14 435.93c-3.5728 4.5796-6.4286-41.429 57.143-87.143 32.522-23.386 133.21-4.2857 110 10.714-25.377 16.398-91.538-20.482-167.14 76.429z" fill="url(#c)"/>
 </g>
 <g transform="matrix(.11244 .0355 -.0355 .11244 376.72 115.4)" fill-rule="evenodd">
  <path d="m270.43 330.39c-81.404-2.7139-148.86 73.917-128.56 171.44 38.576 185.36 176.84 192.41 271.12 365.78v5.6562c0.12403-0.23553 0.25077-0.45256 0.375-0.6875 0.12422 0.23493 0.25096 0.45198 0.375 0.6875v-1.3438c0.27209-0.51257 0.53964-0.99028 0.8125-1.5 0.27529 0.51422 0.56924 0.98287 0.84375 1.5v1.3438c0.12404-0.23552 0.25078-0.45257 0.375-0.6875 0.12423 0.23494 0.25097 0.45197 0.375 0.6875v-5.6562c94.284-173.37 232.55-180.42 271.12-365.78 20.295-97.52-47.158-174.15-128.56-171.44-75.133 2.5048-126.44 40.77-144.12 108.5-17.688-67.733-69.021-106-144.16-108.5z" fill-opacity=".56542"/>
  <path d="m254.27 320.29c-81.404-2.7139-148.86 73.917-128.56 171.44 38.576 185.36 176.84 192.41 271.12 365.78v5.6562c0.12403-0.23553 0.25077-0.45256 0.375-0.6875 0.12422 0.23493 0.25096 0.45198 0.375 0.6875v-1.3438c0.27209-0.51257 0.53964-0.99028 0.8125-1.5 0.27529 0.51422 0.56924 0.98287 0.84375 1.5v1.3438c0.12404-0.23552 0.25078-0.45257 0.375-0.6875 0.12423 0.23494 0.25097 0.45197 0.375 0.6875v-5.6562c94.284-173.37 232.55-180.42 271.12-365.78 20.295-97.52-47.158-174.15-128.56-171.44-75.133 2.5048-126.44 40.77-144.12 108.5-17.688-67.733-69.021-106-144.16-108.5z" fill="url(#b)" stroke="#8d0000" stroke-linecap="round" stroke-linejoin="round" stroke-width="10"/>
  <path d="m155.71 463.79c-3.5728 4.5796-5-64.286 58.571-110 32.522-23.386 100.36-12.143 85.714 14.286s-68.681-1.1967-144.29 95.714z" fill="url(#a)"/>
  <path d="m432.14 435.93c-3.5728 4.5796-6.4286-41.429 57.143-87.143 32.522-23.386 133.21-4.2857 110 10.714-25.377 16.398-91.538-20.482-167.14 76.429z" fill="url(#c)"/>
 </g>
 <g transform="matrix(.21265 -.02775 .02775 .21265 448.87 386.15)" fill-rule="evenodd">
  <path d="m270.43 330.39c-81.404-2.7139-148.86 73.917-128.56 171.44 38.576 185.36 176.84 192.41 271.12 365.78v5.6562c0.12403-0.23553 0.25077-0.45256 0.375-0.6875 0.12422 0.23493 0.25096 0.45198 0.375 0.6875v-1.3438c0.27209-0.51257 0.53964-0.99028 0.8125-1.5 0.27529 0.51422 0.56924 0.98287 0.84375 1.5v1.3438c0.12404-0.23552 0.25078-0.45257 0.375-0.6875 0.12423 0.23494 0.25097 0.45197 0.375 0.6875v-5.6562c94.284-173.37 232.55-180.42 271.12-365.78 20.295-97.52-47.158-174.15-128.56-171.44-75.133 2.5048-126.44 40.77-144.12 108.5-17.688-67.733-69.021-106-144.16-108.5z" fill-opacity=".56542"/>
  <path d="m254.27 320.29c-81.404-2.7139-148.86 73.917-128.56 171.44 38.576 185.36 176.84 192.41 271.12 365.78v5.6562c0.12403-0.23553 0.25077-0.45256 0.375-0.6875 0.12422 0.23493 0.25096 0.45198 0.375 0.6875v-1.3438c0.27209-0.51257 0.53964-0.99028 0.8125-1.5 0.27529 0.51422 0.56924 0.98287 0.84375 1.5v1.3438c0.12404-0.23552 0.25078-0.45257 0.375-0.6875 0.12423 0.23494 0.25097 0.45197 0.375 0.6875v-5.6562c94.284-173.37 232.55-180.42 271.12-365.78 20.295-97.52-47.158-174.15-128.56-171.44-75.133 2.5048-126.44 40.77-144.12 108.5-17.688-67.733-69.021-106-144.16-108.5z" fill="url(#b)" stroke="#8d0000" stroke-linecap="round" stroke-linejoin="round" stroke-width="10"/>
  <path d="m155.71 463.79c-3.5728 4.5796-5-64.286 58.571-110 32.522-23.386 100.36-12.143 85.714 14.286s-68.681-1.1967-144.29 95.714z" fill="url(#a)"/>
  <path d="m432.14 435.93c-3.5728 4.5796-6.4286-41.429 57.143-87.143 32.522-23.386 133.21-4.2857 110 10.714-25.377 16.398-91.538-20.482-167.14 76.429z" fill="url(#c)"/>
 </g>
 <g transform="matrix(.11187 .03726 -.03726 .11187 613.58 471.46)" fill-rule="evenodd">
  <path d="m270.43 330.39c-81.404-2.7139-148.86 73.917-128.56 171.44 38.576 185.36 176.84 192.41 271.12 365.78v5.6562c0.12403-0.23553 0.25077-0.45256 0.375-0.6875 0.12422 0.23493 0.25096 0.45198 0.375 0.6875v-1.3438c0.27209-0.51257 0.53964-0.99028 0.8125-1.5 0.27529 0.51422 0.56924 0.98287 0.84375 1.5v1.3438c0.12404-0.23552 0.25078-0.45257 0.375-0.6875 0.12423 0.23494 0.25097 0.45197 0.375 0.6875v-5.6562c94.284-173.37 232.55-180.42 271.12-365.78 20.295-97.52-47.158-174.15-128.56-171.44-75.133 2.5048-126.44 40.77-144.12 108.5-17.688-67.733-69.021-106-144.16-108.5z" fill-opacity=".56542"/>
  <path d="m254.27 320.29c-81.404-2.7139-148.86 73.917-128.56 171.44 38.576 185.36 176.84 192.41 271.12 365.78v5.6562c0.12403-0.23553 0.25077-0.45256 0.375-0.6875 0.12422 0.23493 0.25096 0.45198 0.375 0.6875v-1.3438c0.27209-0.51257 0.53964-0.99028 0.8125-1.5 0.27529 0.51422 0.56924 0.98287 0.84375 1.5v1.3438c0.12404-0.23552 0.25078-0.45257 0.375-0.6875 0.12423 0.23494 0.25097 0.45197 0.375 0.6875v-5.6562c94.284-173.37 232.55-180.42 271.12-365.78 20.295-97.52-47.158-174.15-128.56-171.44-75.133 2.5048-126.44 40.77-144.12 108.5-17.688-67.733-69.021-106-144.16-108.5z" fill="url(#b)" stroke="#8d0000" stroke-linecap="round" stroke-linejoin="round" stroke-width="10"/>
  <path d="m155.71 463.79c-3.5728 4.5796-5-64.286 58.571-110 32.522-23.386 100.36-12.143 85.714 14.286s-68.681-1.1967-144.29 95.714z" fill="url(#a)"/>
  <path d="m432.14 435.93c-3.5728 4.5796-6.4286-41.429 57.143-87.143 32.522-23.386 133.21-4.2857 110 10.714-25.377 16.398-91.538-20.482-167.14 76.429z" fill="url(#c)"/>
 </g>
 <g transform="matrix(.1052 -.05327 .05327 .1052 393.46 528.41)" fill-rule="evenodd">
  <path d="m270.43 330.39c-81.404-2.7139-148.86 73.917-128.56 171.44 38.576 185.36 176.84 192.41 271.12 365.78v5.6562c0.12403-0.23553 0.25077-0.45256 0.375-0.6875 0.12422 0.23493 0.25096 0.45198 0.375 0.6875v-1.3438c0.27209-0.51257 0.53964-0.99028 0.8125-1.5 0.27529 0.51422 0.56924 0.98287 0.84375 1.5v1.3438c0.12404-0.23552 0.25078-0.45257 0.375-0.6875 0.12423 0.23494 0.25097 0.45197 0.375 0.6875v-5.6562c94.284-173.37 232.55-180.42 271.12-365.78 20.295-97.52-47.158-174.15-128.56-171.44-75.133 2.5048-126.44 40.77-144.12 108.5-17.688-67.733-69.021-106-144.16-108.5z" fill-opacity=".56542"/>
  <path d="m254.27 320.29c-81.404-2.7139-148.86 73.917-128.56 171.44 38.576 185.36 176.84 192.41 271.12 365.78v5.6562c0.12403-0.23553 0.25077-0.45256 0.375-0.6875 0.12422 0.23493 0.25096 0.45198 0.375 0.6875v-1.3438c0.27209-0.51257 0.53964-0.99028 0.8125-1.5 0.27529 0.51422 0.56924 0.98287 0.84375 1.5v1.3438c0.12404-0.23552 0.25078-0.45257 0.375-0.6875 0.12423 0.23494 0.25097 0.45197 0.375 0.6875v-5.6562c94.284-173.37 232.55-180.42 271.12-365.78 20.295-97.52-47.158-174.15-128.56-171.44-75.133 2.5048-126.44 40.77-144.12 108.5-17.688-67.733-69.021-106-144.16-108.5z" fill="url(#b)" stroke="#8d0000" stroke-linecap="round" stroke-linejoin="round" stroke-width="10"/>
  <path d="m155.71 463.79c-3.5728 4.5796-5-64.286 58.571-110 32.522-23.386 100.36-12.143 85.714 14.286s-68.681-1.1967-144.29 95.714z" fill="url(#a)"/>
  <path d="m432.14 435.93c-3.5728 4.5796-6.4286-41.429 57.143-87.143 32.522-23.386 133.21-4.2857 110 10.714-25.377 16.398-91.538-20.482-167.14 76.429z" fill="url(#c)"/>
 </g>
 <g transform="matrix(.11187 .03726 -.03726 .11187 292.3 595.6)" fill-rule="evenodd">
  <path d="m270.43 330.39c-81.404-2.7139-148.86 73.917-128.56 171.44 38.576 185.36 176.84 192.41 271.12 365.78v5.6562c0.12403-0.23553 0.25077-0.45256 0.375-0.6875 0.12422 0.23493 0.25096 0.45198 0.375 0.6875v-1.3438c0.27209-0.51257 0.53964-0.99028 0.8125-1.5 0.27529 0.51422 0.56924 0.98287 0.84375 1.5v1.3438c0.12404-0.23552 0.25078-0.45257 0.375-0.6875 0.12423 0.23494 0.25097 0.45197 0.375 0.6875v-5.6562c94.284-173.37 232.55-180.42 271.12-365.78 20.295-97.52-47.158-174.15-128.56-171.44-75.133 2.5048-126.44 40.77-144.12 108.5-17.688-67.733-69.021-106-144.16-108.5z" fill-opacity=".56542"/>
  <path d="m254.27 320.29c-81.404-2.7139-148.86 73.917-128.56 171.44 38.576 185.36 176.84 192.41 271.12 365.78v5.6562c0.12403-0.23553 0.25077-0.45256 0.375-0.6875 0.12422 0.23493 0.25096 0.45198 0.375 0.6875v-1.3438c0.27209-0.51257 0.53964-0.99028 0.8125-1.5 0.27529 0.51422 0.56924 0.98287 0.84375 1.5v1.3438c0.12404-0.23552 0.25078-0.45257 0.375-0.6875 0.12423 0.23494 0.25097 0.45197 0.375 0.6875v-5.6562c94.284-173.37 232.55-180.42 271.12-365.78 20.295-97.52-47.158-174.15-128.56-171.44-75.133 2.5048-126.44 40.77-144.12 108.5-17.688-67.733-69.021-106-144.16-108.5z" fill="url(#b)" stroke="#8d0000" stroke-linecap="round" stroke-linejoin="round" stroke-width="10"/>
  <path d="m155.71 463.79c-3.5728 4.5796-5-64.286 58.571-110 32.522-23.386 100.36-12.143 85.714 14.286s-68.681-1.1967-144.29 95.714z" fill="url(#a)"/>
  <path d="m432.14 435.93c-3.5728 4.5796-6.4286-41.429 57.143-87.143 32.522-23.386 133.21-4.2857 110 10.714-25.377 16.398-91.538-20.482-167.14 76.429z" fill="url(#c)"/>
 </g>
 <g transform="matrix(.11653 -.01804 .01804 .11653 146.67 488.53)" fill-rule="evenodd">
  <path d="m270.43 330.39c-81.404-2.7139-148.86 73.917-128.56 171.44 38.576 185.36 176.84 192.41 271.12 365.78v5.6562c0.12403-0.23553 0.25077-0.45256 0.375-0.6875 0.12422 0.23493 0.25096 0.45198 0.375 0.6875v-1.3438c0.27209-0.51257 0.53964-0.99028 0.8125-1.5 0.27529 0.51422 0.56924 0.98287 0.84375 1.5v1.3438c0.12404-0.23552 0.25078-0.45257 0.375-0.6875 0.12423 0.23494 0.25097 0.45197 0.375 0.6875v-5.6562c94.284-173.37 232.55-180.42 271.12-365.78 20.295-97.52-47.158-174.15-128.56-171.44-75.133 2.5048-126.44 40.77-144.12 108.5-17.688-67.733-69.021-106-144.16-108.5z" fill-opacity=".56542"/>
  <path d="m254.27 320.29c-81.404-2.7139-148.86 73.917-128.56 171.44 38.576 185.36 176.84 192.41 271.12 365.78v5.6562c0.12403-0.23553 0.25077-0.45256 0.375-0.6875 0.12422 0.23493 0.25096 0.45198 0.375 0.6875v-1.3438c0.27209-0.51257 0.53964-0.99028 0.8125-1.5 0.27529 0.51422 0.56924 0.98287 0.84375 1.5v1.3438c0.12404-0.23552 0.25078-0.45257 0.375-0.6875 0.12423 0.23494 0.25097 0.45197 0.375 0.6875v-5.6562c94.284-173.37 232.55-180.42 271.12-365.78 20.295-97.52-47.158-174.15-128.56-171.44-75.133 2.5048-126.44 40.77-144.12 108.5-17.688-67.733-69.021-106-144.16-108.5z" fill="url(#b)" stroke="#8d0000" stroke-linecap="round" stroke-linejoin="round" stroke-width="10"/>
  <path d="m155.71 463.79c-3.5728 4.5796-5-64.286 58.571-110 32.522-23.386 100.36-12.143 85.714 14.286s-68.681-1.1967-144.29 95.714z" fill="url(#a)"/>
  <path d="m432.14 435.93c-3.5728 4.5796-6.4286-41.429 57.143-87.143 32.522-23.386 133.21-4.2857 110 10.714-25.377 16.398-91.538-20.482-167.14 76.429z" fill="url(#c)"/>
 </g>
 <g transform="matrix(.06099 .03383 -.03383 .06099 161.2 592.2)" fill-rule="evenodd">
  <path d="m270.43 330.39c-81.404-2.7139-148.86 73.917-128.56 171.44 38.576 185.36 176.84 192.41 271.12 365.78v5.6562c0.12403-0.23553 0.25077-0.45256 0.375-0.6875 0.12422 0.23493 0.25096 0.45198 0.375 0.6875v-1.3438c0.27209-0.51257 0.53964-0.99028 0.8125-1.5 0.27529 0.51422 0.56924 0.98287 0.84375 1.5v1.3438c0.12404-0.23552 0.25078-0.45257 0.375-0.6875 0.12423 0.23494 0.25097 0.45197 0.375 0.6875v-5.6562c94.284-173.37 232.55-180.42 271.12-365.78 20.295-97.52-47.158-174.15-128.56-171.44-75.133 2.5048-126.44 40.77-144.12 108.5-17.688-67.733-69.021-106-144.16-108.5z" fill-opacity=".56542"/>
  <path d="m254.27 320.29c-81.404-2.7139-148.86 73.917-128.56 171.44 38.576 185.36 176.84 192.41 271.12 365.78v5.6562c0.12403-0.23553 0.25077-0.45256 0.375-0.6875 0.12422 0.23493 0.25096 0.45198 0.375 0.6875v-1.3438c0.27209-0.51257 0.53964-0.99028 0.8125-1.5 0.27529 0.51422 0.56924 0.98287 0.84375 1.5v1.3438c0.12404-0.23552 0.25078-0.45257 0.375-0.6875 0.12423 0.23494 0.25097 0.45197 0.375 0.6875v-5.6562c94.284-173.37 232.55-180.42 271.12-365.78 20.295-97.52-47.158-174.15-128.56-171.44-75.133 2.5048-126.44 40.77-144.12 108.5-17.688-67.733-69.021-106-144.16-108.5z" fill="url(#b)" stroke="#8d0000" stroke-linecap="round" stroke-linejoin="round" stroke-width="10"/>
  <path d="m155.71 463.79c-3.5728 4.5796-5-64.286 58.571-110 32.522-23.386 100.36-12.143 85.714 14.286s-68.681-1.1967-144.29 95.714z" fill="url(#a)"/>
  <path d="m432.14 435.93c-3.5728 4.5796-6.4286-41.429 57.143-87.143 32.522-23.386 133.21-4.2857 110 10.714-25.377 16.398-91.538-20.482-167.14 76.429z" fill="url(#c)"/>
 </g>
 <g transform="matrix(.11729 -.01217 .01217 .11729 48.306 668.2)" fill-rule="evenodd">
  <path d="m270.43 330.39c-81.404-2.7139-148.86 73.917-128.56 171.44 38.576 185.36 176.84 192.41 271.12 365.78v5.6562c0.12403-0.23553 0.25077-0.45256 0.375-0.6875 0.12422 0.23493 0.25096 0.45198 0.375 0.6875v-1.3438c0.27209-0.51257 0.53964-0.99028 0.8125-1.5 0.27529 0.51422 0.56924 0.98287 0.84375 1.5v1.3438c0.12404-0.23552 0.25078-0.45257 0.375-0.6875 0.12423 0.23494 0.25097 0.45197 0.375 0.6875v-5.6562c94.284-173.37 232.55-180.42 271.12-365.78 20.295-97.52-47.158-174.15-128.56-171.44-75.133 2.5048-126.44 40.77-144.12 108.5-17.688-67.733-69.021-106-144.16-108.5z" fill-opacity=".56542"/>
  <path d="m254.27 320.29c-81.404-2.7139-148.86 73.917-128.56 171.44 38.576 185.36 176.84 192.41 271.12 365.78v5.6562c0.12403-0.23553 0.25077-0.45256 0.375-0.6875 0.12422 0.23493 0.25096 0.45198 0.375 0.6875v-1.3438c0.27209-0.51257 0.53964-0.99028 0.8125-1.5 0.27529 0.51422 0.56924 0.98287 0.84375 1.5v1.3438c0.12404-0.23552 0.25078-0.45257 0.375-0.6875 0.12423 0.23494 0.25097 0.45197 0.375 0.6875v-5.6562c94.284-173.37 232.55-180.42 271.12-365.78 20.295-97.52-47.158-174.15-128.56-171.44-75.133 2.5048-126.44 40.77-144.12 108.5-17.688-67.733-69.021-106-144.16-108.5z" fill="url(#b)" stroke="#8d0000" stroke-linecap="round" stroke-linejoin="round" stroke-width="10"/>
  <path d="m155.71 463.79c-3.5728 4.5796-5-64.286 58.571-110 32.522-23.386 100.36-12.143 85.714 14.286s-68.681-1.1967-144.29 95.714z" fill="url(#a)"/>
  <path d="m432.14 435.93c-3.5728 4.5796-6.4286-41.429 57.143-87.143 32.522-23.386 133.21-4.2857 110 10.714-25.377 16.398-91.538-20.482-167.14 76.429z" fill="url(#c)"/>
 </g>
 <g transform="matrix(.0624 -.03115 .03115 .0624 395.96 300.96)" fill-rule="evenodd">
  <path d="m270.43 330.39c-81.404-2.7139-148.86 73.917-128.56 171.44 38.576 185.36 176.84 192.41 271.12 365.78v5.6562c0.12403-0.23553 0.25077-0.45256 0.375-0.6875 0.12422 0.23493 0.25096 0.45198 0.375 0.6875v-1.3438c0.27209-0.51257 0.53964-0.99028 0.8125-1.5 0.27529 0.51422 0.56924 0.98287 0.84375 1.5v1.3438c0.12404-0.23552 0.25078-0.45257 0.375-0.6875 0.12423 0.23494 0.25097 0.45197 0.375 0.6875v-5.6562c94.284-173.37 232.55-180.42 271.12-365.78 20.295-97.52-47.158-174.15-128.56-171.44-75.133 2.5048-126.44 40.77-144.12 108.5-17.688-67.733-69.021-106-144.16-108.5z" fill-opacity=".56542"/>
  <path d="m254.27 320.29c-81.404-2.7139-148.86 73.917-128.56 171.44 38.576 185.36 176.84 192.41 271.12 365.78v5.6562c0.12403-0.23553 0.25077-0.45256 0.375-0.6875 0.12422 0.23493 0.25096 0.45198 0.375 0.6875v-1.3438c0.27209-0.51257 0.53964-0.99028 0.8125-1.5 0.27529 0.51422 0.56924 0.98287 0.84375 1.5v1.3438c0.12404-0.23552 0.25078-0.45257 0.375-0.6875 0.12423 0.23494 0.25097 0.45197 0.375 0.6875v-5.6562c94.284-173.37 232.55-180.42 271.12-365.78 20.295-97.52-47.158-174.15-128.56-171.44-75.133 2.5048-126.44 40.77-144.12 108.5-17.688-67.733-69.021-106-144.16-108.5z" fill="url(#b)" stroke="#8d0000" stroke-linecap="round" stroke-linejoin="round" stroke-width="10"/>
  <path d="m155.71 463.79c-3.5728 4.5796-5-64.286 58.571-110 32.522-23.386 100.36-12.143 85.714 14.286s-68.681-1.1967-144.29 95.714z" fill="url(#a)"/>
  <path d="m432.14 435.93c-3.5728 4.5796-6.4286-41.429 57.143-87.143 32.522-23.386 133.21-4.2857 110 10.714-25.377 16.398-91.538-20.482-167.14 76.429z" fill="url(#c)"/>
 </g>
 <g transform="matrix(.06589 .02285 -.02285 .06589 497.96 351)" fill-rule="evenodd">
  <path d="m270.43 330.39c-81.404-2.7139-148.86 73.917-128.56 171.44 38.576 185.36 176.84 192.41 271.12 365.78v5.6562c0.12403-0.23553 0.25077-0.45256 0.375-0.6875 0.12422 0.23493 0.25096 0.45198 0.375 0.6875v-1.3438c0.27209-0.51257 0.53964-0.99028 0.8125-1.5 0.27529 0.51422 0.56924 0.98287 0.84375 1.5v1.3438c0.12404-0.23552 0.25078-0.45257 0.375-0.6875 0.12423 0.23494 0.25097 0.45197 0.375 0.6875v-5.6562c94.284-173.37 232.55-180.42 271.12-365.78 20.295-97.52-47.158-174.15-128.56-171.44-75.133 2.5048-126.44 40.77-144.12 108.5-17.688-67.733-69.021-106-144.16-108.5z" fill-opacity=".56542"/>
  <path d="m254.27 320.29c-81.404-2.7139-148.86 73.917-128.56 171.44 38.576 185.36 176.84 192.41 271.12 365.78v5.6562c0.12403-0.23553 0.25077-0.45256 0.375-0.6875 0.12422 0.23493 0.25096 0.45198 0.375 0.6875v-1.3438c0.27209-0.51257 0.53964-0.99028 0.8125-1.5 0.27529 0.51422 0.56924 0.98287 0.84375 1.5v1.3438c0.12404-0.23552 0.25078-0.45257 0.375-0.6875 0.12423 0.23494 0.25097 0.45197 0.375 0.6875v-5.6562c94.284-173.37 232.55-180.42 271.12-365.78 20.295-97.52-47.158-174.15-128.56-171.44-75.133 2.5048-126.44 40.77-144.12 108.5-17.688-67.733-69.021-106-144.16-108.5z" fill="url(#b)" stroke="#8d0000" stroke-linecap="round" stroke-linejoin="round" stroke-width="10"/>
  <path d="m155.71 463.79c-3.5728 4.5796-5-64.286 58.571-110 32.522-23.386 100.36-12.143 85.714 14.286s-68.681-1.1967-144.29 95.714z" fill="url(#a)"/>
  <path d="m432.14 435.93c-3.5728 4.5796-6.4286-41.429 57.143-87.143 32.522-23.386 133.21-4.2857 110 10.714-25.377 16.398-91.538-20.482-167.14 76.429z" fill="url(#c)"/>
 </g>
 <g transform="matrix(.0624 -.03115 .03115 .0624 153.17 695.61)" fill-rule="evenodd">
  <path d="m270.43 330.39c-81.404-2.7139-148.86 73.917-128.56 171.44 38.576 185.36 176.84 192.41 271.12 365.78v5.6562c0.12403-0.23553 0.25077-0.45256 0.375-0.6875 0.12422 0.23493 0.25096 0.45198 0.375 0.6875v-1.3438c0.27209-0.51257 0.53964-0.99028 0.8125-1.5 0.27529 0.51422 0.56924 0.98287 0.84375 1.5v1.3438c0.12404-0.23552 0.25078-0.45257 0.375-0.6875 0.12423 0.23494 0.25097 0.45197 0.375 0.6875v-5.6562c94.284-173.37 232.55-180.42 271.12-365.78 20.295-97.52-47.158-174.15-128.56-171.44-75.133 2.5048-126.44 40.77-144.12 108.5-17.688-67.733-69.021-106-144.16-108.5z" fill-opacity=".56542"/>
  <path d="m254.27 320.29c-81.404-2.7139-148.86 73.917-128.56 171.44 38.576 185.36 176.84 192.41 271.12 365.78v5.6562c0.12403-0.23553 0.25077-0.45256 0.375-0.6875 0.12422 0.23493 0.25096 0.45198 0.375 0.6875v-1.3438c0.27209-0.51257 0.53964-0.99028 0.8125-1.5 0.27529 0.51422 0.56924 0.98287 0.84375 1.5v1.3438c0.12404-0.23552 0.25078-0.45257 0.375-0.6875 0.12423 0.23494 0.25097 0.45197 0.375 0.6875v-5.6562c94.284-173.37 232.55-180.42 271.12-365.78 20.295-97.52-47.158-174.15-128.56-171.44-75.133 2.5048-126.44 40.77-144.12 108.5-17.688-67.733-69.021-106-144.16-108.5z" fill="url(#b)" stroke="#8d0000" stroke-linecap="round" stroke-linejoin="round" stroke-width="10"/>
  <path d="m155.71 463.79c-3.5728 4.5796-5-64.286 58.571-110 32.522-23.386 100.36-12.143 85.714 14.286s-68.681-1.1967-144.29 95.714z" fill="url(#a)"/>
  <path d="m432.14 435.93c-3.5728 4.5796-6.4286-41.429 57.143-87.143 32.522-23.386 133.21-4.2857 110 10.714-25.377 16.398-91.538-20.482-167.14 76.429z" fill="url(#c)"/>
 </g>
 <g transform="matrix(.05783 .03898 -.03898 .05783 259.43 565.02)" fill-rule="evenodd">
  <path d="m270.43 330.39c-81.404-2.7139-148.86 73.917-128.56 171.44 38.576 185.36 176.84 192.41 271.12 365.78v5.6562c0.12403-0.23553 0.25077-0.45256 0.375-0.6875 0.12422 0.23493 0.25096 0.45198 0.375 0.6875v-1.3438c0.27209-0.51257 0.53964-0.99028 0.8125-1.5 0.27529 0.51422 0.56924 0.98287 0.84375 1.5v1.3438c0.12404-0.23552 0.25078-0.45257 0.375-0.6875 0.12423 0.23494 0.25097 0.45197 0.375 0.6875v-5.6562c94.284-173.37 232.55-180.42 271.12-365.78 20.295-97.52-47.158-174.15-128.56-171.44-75.133 2.5048-126.44 40.77-144.12 108.5-17.688-67.733-69.021-106-144.16-108.5z" fill-opacity=".56542"/>
  <path d="m254.27 320.29c-81.404-2.7139-148.86 73.917-128.56 171.44 38.576 185.36 176.84 192.41 271.12 365.78v5.6562c0.12403-0.23553 0.25077-0.45256 0.375-0.6875 0.12422 0.23493 0.25096 0.45198 0.375 0.6875v-1.3438c0.27209-0.51257 0.53964-0.99028 0.8125-1.5 0.27529 0.51422 0.56924 0.98287 0.84375 1.5v1.3438c0.12404-0.23552 0.25078-0.45257 0.375-0.6875 0.12423 0.23494 0.25097 0.45197 0.375 0.6875v-5.6562c94.284-173.37 232.55-180.42 271.12-365.78 20.295-97.52-47.158-174.15-128.56-171.44-75.133 2.5048-126.44 40.77-144.12 108.5-17.688-67.733-69.021-106-144.16-108.5z" fill="url(#b)" stroke="#8d0000" stroke-linecap="round" stroke-linejoin="round" stroke-width="10"/>
  <path d="m155.71 463.79c-3.5728 4.5796-5-64.286 58.571-110 32.522-23.386 100.36-12.143 85.714 14.286s-68.681-1.1967-144.29 95.714z" fill="url(#a)"/>
  <path d="m432.14 435.93c-3.5728 4.5796-6.4286-41.429 57.143-87.143 32.522-23.386 133.21-4.2857 110 10.714-25.377 16.398-91.538-20.482-167.14 76.429z" fill="url(#c)"/>
 </g>
 <g transform="matrix(.06804 .01533 -.01533 .06804 386.19 586.49)" fill-rule="evenodd">
  <path d="m270.43 330.39c-81.404-2.7139-148.86 73.917-128.56 171.44 38.576 185.36 176.84 192.41 271.12 365.78v5.6562c0.12403-0.23553 0.25077-0.45256 0.375-0.6875 0.12422 0.23493 0.25096 0.45198 0.375 0.6875v-1.3438c0.27209-0.51257 0.53964-0.99028 0.8125-1.5 0.27529 0.51422 0.56924 0.98287 0.84375 1.5v1.3438c0.12404-0.23552 0.25078-0.45257 0.375-0.6875 0.12423 0.23494 0.25097 0.45197 0.375 0.6875v-5.6562c94.284-173.37 232.55-180.42 271.12-365.78 20.295-97.52-47.158-174.15-128.56-171.44-75.133 2.5048-126.44 40.77-144.12 108.5-17.688-67.733-69.021-106-144.16-108.5z" fill-opacity=".56542"/>
  <path d="m254.27 320.29c-81.404-2.7139-148.86 73.917-128.56 171.44 38.576 185.36 176.84 192.41 271.12 365.78v5.6562c0.12403-0.23553 0.25077-0.45256 0.375-0.6875 0.12422 0.23493 0.25096 0.45198 0.375 0.6875v-1.3438c0.27209-0.51257 0.53964-0.99028 0.8125-1.5 0.27529 0.51422 0.56924 0.98287 0.84375 1.5v1.3438c0.12404-0.23552 0.25078-0.45257 0.375-0.6875 0.12423 0.23494 0.25097 0.45197 0.375 0.6875v-5.6562c94.284-173.37 232.55-180.42 271.12-365.78 20.295-97.52-47.158-174.15-128.56-171.44-75.133 2.5048-126.44 40.77-144.12 108.5-17.688-67.733-69.021-106-144.16-108.5z" fill="url(#b)" stroke="#8d0000" stroke-linecap="round" stroke-linejoin="round" stroke-width="10"/>
  <path d="m155.71 463.79c-3.5728 4.5796-5-64.286 58.571-110 32.522-23.386 100.36-12.143 85.714 14.286s-68.681-1.1967-144.29 95.714z" fill="url(#a)"/>
  <path d="m432.14 435.93c-3.5728 4.5796-6.4286-41.429 57.143-87.143 32.522-23.386 133.21-4.2857 110 10.714-25.377 16.398-91.538-20.482-167.14 76.429z" fill="url(#c)"/>
 </g>
 <g transform="matrix(.06961 -.00432 .00432 .06961 494.74 553.08)" fill-rule="evenodd">
  <path d="m270.43 330.39c-81.404-2.7139-148.86 73.917-128.56 171.44 38.576 185.36 176.84 192.41 271.12 365.78v5.6562c0.12403-0.23553 0.25077-0.45256 0.375-0.6875 0.12422 0.23493 0.25096 0.45198 0.375 0.6875v-1.3438c0.27209-0.51257 0.53964-0.99028 0.8125-1.5 0.27529 0.51422 0.56924 0.98287 0.84375 1.5v1.3438c0.12404-0.23552 0.25078-0.45257 0.375-0.6875 0.12423 0.23494 0.25097 0.45197 0.375 0.6875v-5.6562c94.284-173.37 232.55-180.42 271.12-365.78 20.295-97.52-47.158-174.15-128.56-171.44-75.133 2.5048-126.44 40.77-144.12 108.5-17.688-67.733-69.021-106-144.16-108.5z" fill-opacity=".56542"/>
  <path d="m254.27 320.29c-81.404-2.7139-148.86 73.917-128.56 171.44 38.576 185.36 176.84 192.41 271.12 365.78v5.6562c0.12403-0.23553 0.25077-0.45256 0.375-0.6875 0.12422 0.23493 0.25096 0.45198 0.375 0.6875v-1.3438c0.27209-0.51257 0.53964-0.99028 0.8125-1.5 0.27529 0.51422 0.56924 0.98287 0.84375 1.5v1.3438c0.12404-0.23552 0.25078-0.45257 0.375-0.6875 0.12423 0.23494 0.25097 0.45197 0.375 0.6875v-5.6562c94.284-173.37 232.55-180.42 271.12-365.78 20.295-97.52-47.158-174.15-128.56-171.44-75.133 2.5048-126.44 40.77-144.12 108.5-17.688-67.733-69.021-106-144.16-108.5z" fill="url(#b)" stroke="#8d0000" stroke-linecap="round" stroke-linejoin="round" stroke-width="10"/>
  <path d="m155.71 463.79c-3.5728 4.5796-5-64.286 58.571-110 32.522-23.386 100.36-12.143 85.714 14.286s-68.681-1.1967-144.29 95.714z" fill="url(#a)"/>
  <path d="m432.14 435.93c-3.5728 4.5796-6.4286-41.429 57.143-87.143 32.522-23.386 133.21-4.2857 110 10.714-25.377 16.398-91.538-20.482-167.14 76.429z" fill="url(#c)"/>
 </g>
 <g transform="matrix(.0638 .02817 -.02817 .0638 6.7188 705.43)" fill-rule="evenodd">
  <path d="m270.43 330.39c-81.404-2.7139-148.86 73.917-128.56 171.44 38.576 185.36 176.84 192.41 271.12 365.78v5.6562c0.12403-0.23553 0.25077-0.45256 0.375-0.6875 0.12422 0.23493 0.25096 0.45198 0.375 0.6875v-1.3438c0.27209-0.51257 0.53964-0.99028 0.8125-1.5 0.27529 0.51422 0.56924 0.98287 0.84375 1.5v1.3438c0.12404-0.23552 0.25078-0.45257 0.375-0.6875 0.12423 0.23494 0.25097 0.45197 0.375 0.6875v-5.6562c94.284-173.37 232.55-180.42 271.12-365.78 20.295-97.52-47.158-174.15-128.56-171.44-75.133 2.5048-126.44 40.77-144.12 108.5-17.688-67.733-69.021-106-144.16-108.5z" fill-opacity=".56542"/>
  <path d="m254.27 320.29c-81.404-2.7139-148.86 73.917-128.56 171.44 38.576 185.36 176.84 192.41 271.12 365.78v5.6562c0.12403-0.23553 0.25077-0.45256 0.375-0.6875 0.12422 0.23493 0.25096 0.45198 0.375 0.6875v-1.3438c0.27209-0.51257 0.53964-0.99028 0.8125-1.5 0.27529 0.51422 0.56924 0.98287 0.84375 1.5v1.3438c0.12404-0.23552 0.25078-0.45257 0.375-0.6875 0.12423 0.23494 0.25097 0.45197 0.375 0.6875v-5.6562c94.284-173.37 232.55-180.42 271.12-365.78 20.295-97.52-47.158-174.15-128.56-171.44-75.133 2.5048-126.44 40.77-144.12 108.5-17.688-67.733-69.021-106-144.16-108.5z" fill="url(#b)" stroke="#8d0000" stroke-linecap="round" stroke-linejoin="round" stroke-width="10"/>
  <path d="m155.71 463.79c-3.5728 4.5796-5-64.286 58.571-110 32.522-23.386 100.36-12.143 85.714 14.286s-68.681-1.1967-144.29 95.714z" fill="url(#a)"/>
  <path d="m432.14 435.93c-3.5728 4.5796-6.4286-41.429 57.143-87.143 32.522-23.386 133.21-4.2857 110 10.714-25.377 16.398-91.538-20.482-167.14 76.429z" fill="url(#c)"/>
 </g>
 <g transform="matrix(.0624 -.03115 .03115 .0624 189.42 432.78)" fill-rule="evenodd">
  <path d="m270.43 330.39c-81.404-2.7139-148.86 73.917-128.56 171.44 38.576 185.36 176.84 192.41 271.12 365.78v5.6562c0.12403-0.23553 0.25077-0.45256 0.375-0.6875 0.12422 0.23493 0.25096 0.45198 0.375 0.6875v-1.3438c0.27209-0.51257 0.53964-0.99028 0.8125-1.5 0.27529 0.51422 0.56924 0.98287 0.84375 1.5v1.3438c0.12404-0.23552 0.25078-0.45257 0.375-0.6875 0.12423 0.23494 0.25097 0.45197 0.375 0.6875v-5.6562c94.284-173.37 232.55-180.42 271.12-365.78 20.295-97.52-47.158-174.15-128.56-171.44-75.133 2.5048-126.44 40.77-144.12 108.5-17.688-67.733-69.021-106-144.16-108.5z" fill-opacity=".56542"/>
  <path d="m254.27 320.29c-81.404-2.7139-148.86 73.917-128.56 171.44 38.576 185.36 176.84 192.41 271.12 365.78v5.6562c0.12403-0.23553 0.25077-0.45256 0.375-0.6875 0.12422 0.23493 0.25096 0.45198 0.375 0.6875v-1.3438c0.27209-0.51257 0.53964-0.99028 0.8125-1.5 0.27529 0.51422 0.56924 0.98287 0.84375 1.5v1.3438c0.12404-0.23552 0.25078-0.45257 0.375-0.6875 0.12423 0.23494 0.25097 0.45197 0.375 0.6875v-5.6562c94.284-173.37 232.55-180.42 271.12-365.78 20.295-97.52-47.158-174.15-128.56-171.44-75.133 2.5048-126.44 40.77-144.12 108.5-17.688-67.733-69.021-106-144.16-108.5z" fill="url(#b)" stroke="#8d0000" stroke-linecap="round" stroke-linejoin="round" stroke-width="10"/>
  <path d="m155.71 463.79c-3.5728 4.5796-5-64.286 58.571-110 32.522-23.386 100.36-12.143 85.714 14.286s-68.681-1.1967-144.29 95.714z" fill="url(#a)"/>
  <path d="m432.14 435.93c-3.5728 4.5796-6.4286-41.429 57.143-87.143 32.522-23.386 133.21-4.2857 110 10.714-25.377 16.398-91.538-20.482-167.14 76.429z" fill="url(#c)"/>
 </g>
 <g transform="matrix(.06972 -.00161 .00161 .06972 318.5 387.05)" fill-rule="evenodd">
  <path d="m270.43 330.39c-81.404-2.7139-148.86 73.917-128.56 171.44 38.576 185.36 176.84 192.41 271.12 365.78v5.6562c0.12403-0.23553 0.25077-0.45256 0.375-0.6875 0.12422 0.23493 0.25096 0.45198 0.375 0.6875v-1.3438c0.27209-0.51257 0.53964-0.99028 0.8125-1.5 0.27529 0.51422 0.56924 0.98287 0.84375 1.5v1.3438c0.12404-0.23552 0.25078-0.45257 0.375-0.6875 0.12423 0.23494 0.25097 0.45197 0.375 0.6875v-5.6562c94.284-173.37 232.55-180.42 271.12-365.78 20.295-97.52-47.158-174.15-128.56-171.44-75.133 2.5048-126.44 40.77-144.12 108.5-17.688-67.733-69.021-106-144.16-108.5z" fill-opacity=".56542"/>
  <path d="m254.27 320.29c-81.404-2.7139-148.86 73.917-128.56 171.44 38.576 185.36 176.84 192.41 271.12 365.78v5.6562c0.12403-0.23553 0.25077-0.45256 0.375-0.6875 0.12422 0.23493 0.25096 0.45198 0.375 0.6875v-1.3438c0.27209-0.51257 0.53964-0.99028 0.8125-1.5 0.27529 0.51422 0.56924 0.98287 0.84375 1.5v1.3438c0.12404-0.23552 0.25078-0.45257 0.375-0.6875 0.12423 0.23494 0.25097 0.45197 0.375 0.6875v-5.6562c94.284-173.37 232.55-180.42 271.12-365.78 20.295-97.52-47.158-174.15-128.56-171.44-75.133 2.5048-126.44 40.77-144.12 108.5-17.688-67.733-69.021-106-144.16-108.5z" fill="url(#b)" stroke="#8d0000" stroke-linecap="round" stroke-linejoin="round" stroke-width="10"/>
  <path d="m155.71 463.79c-3.5728 4.5796-5-64.286 58.571-110 32.522-23.386 100.36-12.143 85.714 14.286s-68.681-1.1967-144.29 95.714z" fill="url(#a)"/>
  <path d="m432.14 435.93c-3.5728 4.5796-6.4286-41.429 57.143-87.143 32.522-23.386 133.21-4.2857 110 10.714-25.377 16.398-91.538-20.482-167.14 76.429z" fill="url(#c)"/>
 </g>
</svg>
